<?xml version="1.0" standalone="no"?>
<svg version="1.0" xmlns="http://www.w3.org/2000/svg"
 width="900.000000pt" height="900.000000pt" viewBox="0 0 900.000000 900.000000"
 preserveAspectRatio="xMidYMid meet">
<g transform="translate(0.000000,900.000000) scale(0.100000,-0.100000)"
fill="#000000" stroke="none">
<path d="M4407 8985 c-4 -8 -21 -21 -40 -29 -41 -17 -107 -92 -126 -144 -7
-20 -17 -75 -21 -122 -17 -210 -152 -351 -385 -404 -97 -22 -268 -72 -313 -92
-18 -8 -39 -14 -47 -14 -14 0 -66 -20 -118 -46 -16 -8 -33 -14 -39 -14 -13 0
-314 -148 -348 -171 -14 -9 -65 -43 -115 -75 -449 -288 -793 -710 -989 -1214
-10 -25 -24 -60 -32 -78 -33 -76 -14 -97 63 -68 21 7 67 22 103 31 36 10 103
30 150 45 47 15 114 35 150 45 36 10 106 31 155 46 50 16 113 35 140 43 105
31 262 78 300 90 22 8 69 21 105 31 36 10 83 24 105 31 22 7 87 27 145 44 58
17 150 44 205 61 168 51 188 57 245 73 30 9 96 29 145 45 50 15 119 36 155 46
36 10 99 29 140 42 172 56 210 63 351 63 144 0 161 -3 394 -75 22 -7 67 -21
100 -30 33 -10 78 -24 100 -30 22 -7 67 -21 100 -30 33 -10 78 -24 100 -30 22
-7 67 -21 100 -30 33 -10 78 -24 100 -30 22 -7 67 -21 100 -30 33 -10 78 -24
100 -30 22 -7 67 -21 100 -30 33 -10 78 -24 100 -30 22 -7 67 -21 100 -30 33
-10 78 -24 100 -30 22 -7 67 -21 100 -30 33 -10 78 -24 100 -30 22 -7 67 -21
100 -30 33 -10 78 -24 100 -30 22 -7 67 -21 100 -30 33 -10 78 -24 100 -30 22
-7 67 -21 100 -30 33 -10 78 -24 100 -30 22 -7 67 -21 100 -30 33 -10 77 -24
98 -31 77 -28 96 -8 63 68 -8 18 -22 53 -31 78 -78 204 -209 439 -342 617
-166 221 -431 465 -661 609 -35 21 -75 47 -90 56 -52 33 -348 178 -363 178 -8
0 -19 4 -24 9 -10 10 -76 36 -130 51 -16 5 -61 19 -100 33 -77 26 -147 46
-272 76 -111 27 -187 66 -250 129 -73 73 -114 162 -124 272 -4 47 -13 102 -21
122 -18 51 -84 127 -125 144 -19 8 -36 21 -40 29 -4 11 -24 15 -83 15 -59 0
-79 -4 -83 -15z"/>
<path d="M4435 6725 c-5 -2 -44 -13 -85 -25 -41 -12 -93 -27 -115 -34 -22 -7
-67 -21 -100 -31 -33 -9 -78 -23 -100 -30 -22 -6 -67 -20 -100 -30 -33 -9 -78
-23 -100 -30 -22 -6 -67 -20 -100 -30 -33 -9 -78 -23 -100 -30 -22 -6 -67 -20
-100 -30 -33 -9 -78 -23 -100 -30 -22 -7 -67 -20 -100 -30 -33 -10 -78 -23
-100 -30 -22 -6 -67 -20 -100 -30 -33 -10 -78 -23 -100 -30 -22 -7 -67 -20
-100 -30 -33 -10 -78 -23 -100 -30 -22 -7 -67 -20 -100 -30 -33 -9 -78 -23
-100 -30 -22 -7 -67 -20 -100 -30 -33 -10 -78 -23 -100 -30 -22 -6 -67 -20
-100 -30 -33 -10 -78 -23 -100 -30 -22 -7 -67 -20 -100 -30 -33 -9 -78 -23
-100 -30 -22 -6 -67 -20 -100 -30 -33 -9 -78 -23 -100 -30 -22 -6 -67 -20
-100 -30 -193 -57 -221 -70 -267 -124 -72 -85 -68 -3 -68 -1301 0 -1085 1
-1168 17 -1214 40 -111 -47 -63 1534 -853 870 -434 1463 -725 1492 -731 30 -6
64 -6 95 0 28 6 612 292 1490 731 1582 790 1494 741 1535 853 16 46 17 129 17
1214 0 1318 6 1223 -80 1311 -44 46 -115 81 -200 99 -19 5 -48 13 -65 18 -16
6 -57 18 -90 28 -33 9 -76 22 -95 29 -19 7 -61 20 -92 29 -32 9 -84 23 -115
32 -32 9 -74 22 -93 29 -19 7 -62 20 -95 30 -33 10 -80 23 -105 31 -123 36
-260 77 -300 89 -25 7 -70 21 -100 29 -30 9 -95 29 -145 45 -49 15 -119 36
-155 46 -36 10 -103 30 -150 45 -47 15 -114 35 -150 45 -36 10 -83 23 -105 30
-55 18 -239 73 -300 91 -27 8 -90 27 -140 43 -49 15 -119 36 -155 46 -36 10
-83 24 -105 31 -149 51 -266 73 -310 59z m-408 -1175 c59 -26 124 -97 146
-156 16 -45 17 -118 17 -989 0 -1064 5 -997 -80 -1085 -104 -107 -266 -107
-372 2 -82 84 -78 29 -78 1083 0 1052 -4 1002 77 1082 24 24 63 53 86 63 56
26 148 26 204 0z m1119 5 c81 -34 133 -92 161 -180 18 -56 19 -1878 1 -1939
-58 -199 -296 -262 -438 -116 -85 88 -80 21 -80 1085 0 871 1 944 17 989 22
59 87 130 146 156 51 24 143 26 193 5z m-2263 -339 c52 -18 119 -76 148 -128
l24 -43 0 -595 c0 -591 0 -595 -22 -635 -62 -116 -175 -172 -292 -145 -51 12
-117 52 -149 90 -7 8 -22 33 -35 55 -22 40 -22 40 -22 635 l0 595 29 48 c32
53 91 105 139 123 44 16 135 16 180 0z m3386 2 c53 -18 115 -71 146 -125 l28
-47 1 -595 c0 -595 0 -596 -22 -636 -28 -52 -39 -64 -87 -101 -127 -97 -307
-50 -388 101 -22 40 -22 44 -22 635 l0 595 24 43 c27 50 95 110 143 128 44 16
133 17 177 2z"/>
<path d="M2355 2110 c-3 -6 -12 -20 -18 -33 -100 -186 -321 -400 -652 -632
-72 -51 -158 -118 -201 -158 -46 -42 -84 -126 -84 -185 0 -53 29 -128 68 -172
32 -38 144 -100 179 -100 10 0 35 -6 58 -14 47 -16 101 -32 245 -75 58 -17
125 -38 150 -45 50 -16 225 -68 310 -93 30 -9 73 -22 95 -29 22 -7 87 -26 145
-43 58 -17 125 -38 150 -45 50 -16 225 -68 310 -93 30 -9 73 -22 95 -28 22 -7
67 -21 100 -30 33 -10 78 -24 100 -30 22 -7 67 -21 100 -30 33 -10 78 -24 100
-30 22 -7 67 -21 100 -30 33 -10 78 -24 100 -30 22 -7 67 -21 100 -30 33 -10
78 -24 100 -30 62 -19 134 -41 200 -60 33 -10 78 -24 100 -31 107 -33 125 -35
200 -31 44 2 98 9 120 15 51 14 131 38 170 51 17 5 57 17 90 27 33 9 78 23
100 30 22 7 87 26 145 43 58 17 125 38 150 45 50 16 225 68 310 93 30 9 73 22
95 29 22 7 87 27 145 44 58 16 125 36 150 44 57 17 240 73 300 91 25 7 92 27
150 44 58 18 130 39 160 48 30 9 73 22 95 29 22 7 87 27 145 44 58 16 125 36
150 44 47 15 215 65 310 93 117 34 165 58 210 104 49 49 80 120 80 181 0 87
-61 183 -160 251 -25 17 -59 42 -77 56 -33 26 -61 48 -258 193 -185 137 -375
343 -444 481 -8 16 -19 31 -26 33 -6 3 -407 -193 -890 -435 -484 -242 -901
-449 -926 -459 -185 -79 -408 -83 -594 -10 -27 11 -450 220 -939 464 -488 244
-892 444 -897 444 -4 0 -11 -5 -14 -10z"/>
</g>
</svg>
