<?xml version="1.0" standalone="no"?>
<svg version="1.0" xmlns="http://www.w3.org/2000/svg"
 width="900.000000pt" height="900.000000pt" viewBox="0 0 900.000000 900.000000"
>

<g transform="translate(0.000000,900.000000) scale(0.100000,-0.100000)"
fill="#000000" stroke="none">
<path d="M701 8718 c-10 -24 -21 -76 -25 -117 -4 -40 -9 -77 -12 -82 -3 -5
-19 -3 -37 5 -18 7 -64 16 -103 20 -94 9 -99 3 -84 -101 6 -43 12 -91 13 -108
l2 -29 -75 -4 c-91 -4 -160 -31 -160 -61 0 -25 66 -76 168 -127 39 -21 72 -40
72 -43 0 -3 -17 -24 -38 -45 -40 -43 -112 -147 -127 -186 -6 -15 -17 -39 -48
-111 -19 -44 -9 -63 29 -56 35 6 89 24 127 43 16 8 33 14 39 14 5 0 38 22 73
48 66 49 135 129 135 155 0 8 7 20 15 27 8 7 15 21 15 32 0 24 26 34 45 18 19
-15 19 -59 1 -85 -7 -11 -16 -32 -20 -47 -3 -16 -11 -28 -16 -28 -6 0 -10 -6
-10 -13 0 -8 -20 -34 -45 -58 l-45 -44 0 -528 c0 -419 3 -528 13 -525 9 4 13
118 15 518 l2 513 24 23 c13 13 36 43 52 67 16 23 32 44 37 45 4 2 7 13 7 25
0 12 7 31 15 41 8 11 15 31 15 45 0 38 10 48 59 56 31 5 46 4 51 -6 16 -25
-79 -224 -137 -287 -7 -7 -15 -23 -18 -35 -3 -12 -4 -539 -3 -1172 l3 -1150
23 -3 22 -3 0 1154 0 1154 38 54 c21 30 49 74 62 99 12 25 29 57 36 72 8 14
14 32 14 39 0 7 7 33 16 56 16 40 21 44 80 62 34 11 71 24 81 29 10 5 38 20
63 32 25 13 69 41 99 62 l54 38 1154 0 1154 0 -3 23 -3 22 -1158 3 -1158 2
-61 -41 c-84 -55 -246 -132 -265 -125 -12 5 -14 16 -8 54 8 52 17 62 57 62 14
0 39 7 55 14 15 8 35 18 43 21 34 13 87 53 130 97 15 16 57 18 530 20 400 2
514 6 518 16 3 9 -107 12 -525 12 l-529 0 -39 -41 c-22 -22 -49 -45 -60 -50
-11 -5 -27 -13 -35 -18 -72 -41 -100 -48 -134 -35 -21 8 -20 43 2 50 56 19
142 72 186 117 25 26 86 117 86 129 0 5 6 22 14 36 18 36 37 91 43 124 7 35
-15 45 -60 28 -64 -25 -163 -75 -198 -102 -20 -16 -41 -28 -45 -28 -5 -1 -27
-19 -49 -40 -22 -22 -43 -40 -46 -40 -4 0 -23 31 -42 68 -49 97 -105 172 -129
172 -13 0 -25 -13 -37 -42z m551 -73 c-2 -22 -10 -47 -18 -56 -8 -8 -14 -23
-14 -31 0 -9 -7 -21 -15 -28 -8 -7 -15 -18 -15 -24 0 -16 -58 -77 -105 -112
-90 -66 -135 -78 -135 -37 0 10 -8 40 -17 67 l-18 48 65 60 c36 33 74 65 85
70 32 15 66 35 78 47 6 6 19 11 28 11 9 0 22 7 29 15 7 9 23 15 34 13 18 -3
21 -9 18 -43z m-464 -24 c28 -45 55 -104 87 -191 35 -95 48 -307 21 -342 -26
-35 -246 -20 -376 25 -100 35 -222 108 -206 124 4 4 67 7 139 7 117 -2 140 -5
202 -29 39 -14 82 -31 98 -37 57 -21 70 6 39 76 -51 113 -78 269 -62 355 5 30
10 56 10 58 0 2 4 3 9 3 5 0 23 -22 39 -49z m-148 -161 c31 -16 37 -26 53 -86
10 -38 23 -80 28 -93 5 -13 8 -25 7 -26 -3 -4 -73 15 -147 38 -48 15 -80 57
-82 107 0 14 -4 34 -8 45 -15 38 -3 47 58 39 31 -3 72 -15 91 -24z m-83 -415
c19 -8 46 -15 60 -15 34 0 37 -21 11 -71 -35 -69 -127 -169 -153 -169 -7 0
-18 -7 -25 -15 -7 -8 -19 -15 -28 -15 -8 0 -23 -6 -31 -14 -9 -7 -35 -16 -58
-20 -40 -6 -43 -5 -43 18 0 13 7 29 15 36 8 7 15 20 15 29 0 9 5 22 11 28 12
12 32 45 47 78 13 26 121 145 133 145 5 0 26 -7 46 -15z"/>
<path d="M8185 8708 c-21 -29 -53 -83 -72 -120 -19 -37 -38 -68 -41 -68 -4 0
-24 16 -45 36 -43 41 -128 100 -157 109 -11 3 -20 11 -20 16 0 5 -8 9 -18 9
-10 0 -27 7 -38 15 -10 8 -29 15 -41 15 -12 0 -25 5 -28 10 -3 6 -18 10 -32
10 -23 0 -25 -3 -20 -32 5 -37 22 -89 43 -131 8 -16 14 -32 14 -37 0 -11 62
-103 86 -127 45 -45 130 -98 187 -117 12 -4 17 -14 15 -28 -5 -41 -67 -35
-148 13 -8 5 -24 13 -35 18 -11 5 -38 28 -60 50 l-39 41 -529 0 c-418 0 -528
-3 -525 -12 4 -10 120 -14 519 -18 l514 -5 43 -39 c40 -38 71 -59 102 -71 8
-3 28 -13 43 -21 16 -7 41 -14 55 -14 15 0 32 -4 39 -8 16 -10 28 -98 14 -106
-22 -14 -234 90 -289 141 -7 7 -23 15 -35 18 -12 3 -539 4 -1172 3 l-1150 -3
-3 -22 -3 -23 1154 0 1154 0 54 -39 c73 -52 161 -96 241 -121 62 -19 66 -22
82 -63 9 -23 16 -49 16 -56 0 -7 7 -26 15 -42 8 -16 22 -44 31 -61 10 -18 37
-63 60 -99 l44 -67 0 -1152 0 -1151 23 3 22 3 3 1150 c1 633 0 1160 -3 1172
-3 12 -11 28 -18 35 -49 51 -136 231 -137 281 0 16 6 17 48 11 51 -7 62 -16
62 -51 0 -12 6 -37 14 -55 8 -18 17 -40 21 -48 14 -35 53 -87 97 -130 16 -15
18 -57 20 -530 2 -400 6 -514 16 -518 9 -3 12 107 12 525 l0 529 -41 39 c-22
22 -45 49 -50 60 -5 11 -13 27 -18 35 -45 79 -52 118 -26 140 17 14 45 7 45
-13 0 -29 66 -135 113 -181 24 -24 116 -86 127 -86 5 0 21 -6 37 -14 38 -19
92 -37 127 -43 50 -10 50 21 0 119 -8 14 -14 33 -14 42 0 9 -4 16 -9 16 -5 0
-13 9 -16 20 -9 29 -68 114 -109 157 -20 21 -36 41 -36 44 0 3 28 20 63 37 92
46 177 109 177 133 0 30 -70 57 -160 61 l-75 4 2 29 c1 17 7 65 13 109 15 105
10 111 -91 97 -41 -6 -88 -13 -106 -17 l-31 -6 -7 79 c-9 94 -35 163 -63 163
-13 0 -34 -20 -57 -52z m-405 -33 c7 -8 20 -15 29 -15 9 0 22 -5 28 -11 12
-12 44 -32 78 -48 11 -5 49 -36 85 -69 l65 -60 -18 -48 c-9 -27 -17 -57 -17
-67 0 -41 -47 -28 -135 38 -49 37 -105 96 -105 111 0 6 -7 17 -15 24 -8 7 -15
19 -15 28 0 8 -6 23 -14 31 -14 17 -28 86 -19 95 11 11 40 6 53 -9z m460 -9
c0 -2 4 -26 10 -55 16 -84 -12 -246 -62 -357 -32 -72 -18 -97 44 -74 112 42
152 53 233 64 83 11 188 6 203 -9 16 -16 -133 -99 -228 -127 -103 -31 -150
-38 -242 -38 -122 0 -128 5 -128 118 0 127 14 192 70 331 26 64 78 151 91 151
5 0 9 -2 9 -4z m253 -188 c2 -7 1 -22 -4 -33 -4 -11 -8 -31 -8 -45 -2 -50 -34
-92 -82 -107 -74 -23 -144 -42 -147 -38 -1 1 2 13 7 26 5 13 18 55 28 92 15
57 23 72 48 85 55 29 150 40 158 20z m42 -479 c31 -34 61 -71 66 -83 15 -33
36 -67 48 -79 6 -6 11 -19 11 -28 0 -9 7 -22 15 -29 8 -7 15 -23 15 -36 0 -23
-3 -24 -41 -18 -23 4 -60 17 -83 30 -22 13 -50 28 -61 33 -61 29 -185 192
-171 227 3 7 16 14 28 15 13 0 39 7 58 14 19 7 40 14 46 14 7 1 37 -27 69 -60z"/>
<path d="M727 3613 c-4 -3 -7 -525 -7 -1160 0 -1149 1 -1176 31 -1203 5 -5 68
-111 89 -152 5 -9 18 -42 29 -73 23 -66 17 -73 -52 -59 -39 8 -42 12 -49 49
-12 78 -43 138 -108 208 l-35 39 -5 516 c-4 400 -8 516 -17 520 -10 3 -13
-107 -13 -526 0 -473 2 -531 16 -543 25 -20 104 -126 104 -139 0 -6 7 -21 16
-35 23 -35 15 -89 -14 -93 -14 -2 -24 3 -28 15 -8 24 -37 85 -47 98 -4 5 -18
25 -31 43 -43 60 -199 161 -250 162 -12 1 -32 7 -46 15 -36 20 -70 19 -70 -2
0 -18 15 -63 37 -113 6 -14 14 -32 18 -40 15 -38 91 -149 130 -191 19 -21 35
-40 35 -43 0 -2 -31 -20 -68 -39 -96 -49 -172 -105 -172 -128 0 -29 72 -57
163 -65 l79 -6 -6 -31 c-4 -18 -11 -65 -17 -106 -14 -100 -7 -107 93 -93 40 6
87 14 104 17 31 7 31 6 38 -40 3 -27 6 -62 6 -79 1 -47 35 -116 59 -116 23 0
75 67 125 165 20 38 38 71 41 73 2 2 21 -12 43 -32 43 -40 152 -115 192 -132
8 -3 29 -12 45 -19 17 -7 47 -20 68 -29 21 -9 43 -14 48 -11 13 9 10 46 -6 75
-8 14 -15 36 -15 50 0 14 -7 34 -15 44 -8 11 -15 26 -15 33 0 25 -100 149
-140 174 -22 13 -40 27 -40 32 0 4 -5 7 -12 7 -28 0 -98 43 -98 60 0 31 61 41
96 15 10 -8 25 -15 32 -15 14 0 119 -78 141 -104 12 -14 70 -16 543 -16 419 0
529 3 526 13 -4 9 -118 13 -518 15 l-513 2 -38 34 c-20 19 -50 43 -66 52 -15
10 -30 21 -33 24 -9 9 -73 32 -113 40 -21 4 -39 9 -41 11 -2 2 -7 25 -11 52
-6 42 -5 47 11 47 45 0 182 -64 253 -118 19 -14 48 -30 66 -36 22 -8 371 -10
1175 -6 l1145 5 3 23 3 22 -1154 0 -1154 0 -44 32 c-47 35 -205 118 -222 118
-6 0 -30 7 -54 16 -38 15 -44 22 -59 68 -24 77 -77 184 -123 251 l-41 60 0
1153 c0 1110 -1 1152 -18 1152 -10 0 -22 -3 -25 -7z m-332 -2381 c17 -8 37
-19 45 -23 8 -5 24 -13 35 -18 61 -28 185 -192 171 -227 -3 -7 -13 -14 -23
-14 -10 0 -40 -8 -67 -17 l-49 -18 -63 68 c-34 37 -72 87 -84 110 -11 23 -25
49 -30 57 -5 8 -11 22 -14 30 -3 8 -11 22 -18 31 -6 9 -8 24 -5 32 7 19 52 14
102 -11z m500 -342 c30 -33 12 -257 -29 -369 -41 -108 -107 -224 -120 -210 -4
3 -11 30 -16 60 -12 66 8 215 40 299 40 103 42 110 36 126 -7 17 -50 12 -96
-11 -89 -45 -260 -73 -342 -56 -32 7 -58 16 -58 21 0 11 99 69 158 93 133 54
180 64 313 66 83 1 98 -2 114 -19z m-195 -262 c-31 -105 -39 -113 -132 -133
-55 -12 -64 -11 -75 2 -8 10 -9 23 -2 40 5 13 9 34 9 46 0 38 35 90 66 99 180
52 168 57 134 -54z m313 5 c74 -41 159 -117 178 -158 5 -11 13 -27 18 -35 25
-45 39 -79 45 -112 6 -35 5 -38 -17 -38 -14 0 -30 7 -37 15 -7 8 -21 15 -31
15 -10 0 -20 4 -23 9 -4 5 -26 19 -51 31 -24 12 -75 50 -112 84 l-67 63 18 59
c10 32 20 65 22 72 5 17 20 15 57 -5z"/>
<path d="M8210 2469 l0 -1153 -43 -65 c-60 -91 -93 -157 -118 -240 -16 -54
-26 -64 -80 -80 -83 -25 -149 -58 -240 -118 l-65 -43 -1153 0 -1152 0 3 -23 3
-22 1166 -3 c1108 -2 1166 -1 1185 16 16 15 105 70 166 103 29 15 102 39 121
39 18 0 20 -19 8 -75 -5 -26 -12 -31 -46 -37 -80 -13 -142 -47 -220 -119 l-31
-29 -514 -2 c-400 -2 -514 -6 -518 -15 -3 -10 106 -13 525 -13 l528 0 46 43
c49 44 74 63 99 73 8 3 27 12 42 20 45 24 98 15 98 -16 0 -17 -70 -60 -98 -60
-7 0 -12 -3 -12 -7 0 -5 -18 -19 -40 -32 -40 -25 -140 -149 -140 -174 0 -7 -7
-22 -15 -33 -8 -10 -15 -31 -15 -45 0 -14 -7 -34 -15 -45 -16 -21 -20 -70 -6
-79 5 -3 27 2 48 11 21 9 52 22 68 29 17 7 37 16 45 19 39 17 149 92 191 131
21 19 40 35 42 35 3 0 19 -28 36 -62 47 -95 104 -173 129 -176 18 -3 26 5 42
40 11 24 20 57 20 74 0 17 3 52 6 79 7 46 7 47 38 40 17 -3 64 -11 104 -17
100 -14 107 -7 93 93 -6 41 -13 88 -17 106 l-6 31 79 6 c91 8 163 36 163 65 0
23 -76 79 -172 128 -37 19 -68 38 -68 42 0 4 14 20 31 37 34 32 118 153 134
194 4 8 12 29 19 45 7 17 20 46 28 65 8 19 13 41 11 48 -6 16 -42 15 -73 -3
-14 -8 -36 -15 -50 -15 -14 0 -34 -7 -44 -15 -11 -8 -26 -15 -33 -15 -25 0
-149 -100 -174 -140 -13 -22 -27 -40 -31 -40 -5 0 -8 -8 -8 -19 0 -10 -6 -24
-14 -31 -8 -6 -16 -21 -18 -33 -2 -16 -10 -22 -28 -22 -21 0 -26 5 -28 33 -2
19 4 44 12 57 9 14 16 29 16 36 0 12 47 77 92 125 l28 30 -2 525 c-2 343 -6
523 -13 522 -6 -2 -11 -184 -13 -515 l-2 -512 -29 -31 c-75 -80 -104 -135
-125 -237 -5 -23 -13 -28 -50 -33 -25 -4 -49 -4 -54 -1 -10 6 14 90 38 134 29
55 86 149 97 160 7 7 15 23 18 35 3 12 4 540 3 1172 l-3 1150 -22 3 -23 3 0
-1152z m478 -1236 c2 -11 -4 -26 -13 -33 -8 -7 -15 -20 -15 -30 0 -10 -7 -23
-15 -30 -8 -7 -15 -18 -15 -26 0 -16 -90 -136 -127 -169 -17 -16 -36 -23 -48
-21 -52 12 -115 32 -122 39 -22 23 111 200 172 228 11 5 27 13 35 17 61 35
112 53 135 48 6 -2 11 -12 13 -23z m-354 -334 c61 -11 94 -21 176 -55 61 -25
160 -83 160 -94 0 -5 -26 -14 -57 -21 -87 -18 -243 9 -359 62 -50 23 -73 24
-80 4 -6 -15 -4 -22 36 -125 32 -84 52 -233 40 -299 -5 -30 -12 -57 -16 -60
-8 -9 -41 37 -74 104 -62 127 -79 194 -87 348 -7 142 -3 147 115 147 47 0 113
-5 146 -11z m52 -208 c47 -15 61 -25 76 -52 10 -19 18 -44 18 -56 0 -12 5 -34
10 -49 15 -38 -6 -59 -44 -44 -15 5 -39 10 -54 10 -15 0 -40 9 -56 20 -30 19
-39 39 -70 153 l-13 48 37 -6 c20 -3 63 -14 96 -24z m-362 -53 c2 -7 11 -39
21 -71 l18 -58 -44 -45 c-50 -52 -185 -144 -210 -144 -9 0 -22 -7 -29 -15 -7
-8 -23 -15 -37 -15 -22 0 -23 3 -17 38 6 33 20 67 45 112 5 8 13 24 18 35 19
41 102 116 174 156 38 21 56 23 61 7z"/>
</g>
</svg>
