<?xml version="1.0" standalone="no"?>
<svg version="1.0" xmlns="http://www.w3.org/2000/svg"
 width="300.000000pt" height="58.000000pt" viewBox="0 0 300.000000 58.000000"
>
<g transform="translate(0.000000,68.000000) scale(0.100000,-0.100000)"
fill="#000000" stroke="none">
<path d="M2339 584 c-55 -16 -105 -68 -114 -116 -6 -30 -12 -35 -63 -51 -81
-25 -114 -22 -204 19 -89 40 -170 48 -211 21 -16 -10 -40 -14 -77 -11 -30 2
-70 -1 -88 -7 -29 -10 -37 -8 -68 16 l-34 26 -37 -30 c-33 -27 -38 -28 -58
-15 -16 10 -40 13 -84 9 -47 -4 -68 -1 -87 11 -42 28 -119 21 -204 -20 -86
-42 -130 -45 -210 -17 -47 17 -56 24 -63 53 -15 58 -87 118 -142 118 -39 0
-27 -59 23 -114 l27 -29 -25 7 c-14 5 -63 10 -110 13 -64 4 -95 1 -123 -10
l-37 -16 -24 38 c-28 44 -56 55 -86 34 -27 -19 -23 -63 7 -79 l23 -11 -24 -13
c-14 -7 -30 -26 -37 -42 -10 -24 -9 -31 6 -48 23 -25 47 -25 69 -1 18 19 18
19 41 -7 20 -23 27 -25 44 -15 13 8 29 9 51 3 53 -15 120 22 120 65 0 25 -14
39 -48 48 -29 7 -59 -20 -41 -37 8 -8 13 -8 16 2 6 17 23 15 23 -2 0 -17 -31
-29 -53 -20 -24 9 -29 34 -12 60 30 46 97 44 278 -7 71 -20 137 -32 179 -33
58 -1 68 -4 68 -19 0 -27 27 -74 52 -91 35 -25 83 -20 107 10 26 33 27 66 3
87 -22 20 -46 22 -61 4 -14 -18 -2 -30 16 -15 21 17 41 -6 23 -27 -19 -23 -47
-18 -66 11 -16 24 -16 26 2 44 24 24 90 39 129 29 17 -5 39 -20 51 -34 17 -22
31 -27 85 -30 35 -3 76 0 90 6 20 8 35 7 64 -6 35 -14 42 -14 82 1 32 13 46
14 57 5 8 -7 40 -10 80 -8 60 3 70 7 96 35 26 28 35 32 82 32 63 0 102 -17
106 -47 6 -41 -60 -74 -75 -37 -9 24 13 40 33 23 14 -12 16 -11 13 6 -5 25
-38 31 -63 12 -48 -35 -9 -117 55 -117 39 0 89 46 98 90 7 33 8 34 51 32 27
-2 108 13 204 38 88 22 174 40 192 40 50 0 83 -16 90 -45 11 -45 -37 -75 -66
-40 -16 19 -5 34 12 17 16 -16 28 -15 28 3 0 38 -75 38 -92 -1 -23 -50 56
-107 117 -84 20 8 31 7 42 -1 18 -15 63 4 63 26 0 13 6 11 30 -6 25 -19 33
-21 55 -11 41 19 29 79 -22 105 l-26 14 26 7 c44 11 46 69 3 85 -32 12 -54 2
-77 -36 -19 -31 -24 -33 -53 -26 -40 10 -192 10 -229 0 l-29 -8 25 33 c29 39
51 99 40 109 -5 4 -29 1 -54 -7z m-1656 -65 c56 -58 43 -98 -20 -59 -27 16
-73 83 -73 106 0 18 60 -12 93 -47z m1687 37 c0 -43 -99 -131 -122 -108 -15
15 20 71 62 99 37 26 60 29 60 9z m-2059 -89 c9 -18 9 -20 -2 -9 -18 17 -34
15 -19 -3 9 -11 9 -15 1 -15 -24 0 -51 21 -51 40 0 38 49 29 71 -13z m2419 7
c0 -16 -47 -37 -67 -30 -19 7 -16 23 7 46 16 16 25 18 40 10 11 -6 20 -17 20
-26z m-2327 -53 c-16 -27 -16 -30 1 -55 23 -35 41 -42 74 -25 43 22 48 22 23
0 -13 -12 -37 -21 -57 -21 -29 0 -36 5 -49 37 -9 21 -23 45 -31 54 -14 15 -13
18 13 27 42 15 43 14 26 -17z m792 19 c14 -5 23 -14 20 -20 -4 -7 -12 -7 -25
0 -24 13 -111 13 -144 0 -38 -14 -32 -2 7 15 38 17 105 19 142 5z m321 -15
c20 -14 43 -25 50 -25 33 0 10 -16 -38 -27 -42 -10 -63 -9 -103 1 l-50 13 42
21 c23 12 44 26 48 32 8 14 9 13 51 -15z m389 11 c41 -17 48 -30 8 -15 -36 14
-105 14 -131 0 -27 -14 -32 -14 -32 3 0 27 100 35 155 12z m705 -13 c0 -3 -9
-16 -20 -30 -11 -14 -20 -34 -20 -43 0 -20 -19 -30 -56 -30 -29 0 -64 16 -64
30 0 5 13 2 29 -8 24 -13 34 -14 55 -4 30 13 44 57 27 83 -16 27 -14 29 19 18
17 -6 30 -13 30 -16z m-1334 -9 c-3 -9 -6 -22 -6 -30 0 -15 -35 -19 -44 -5 -9
14 4 39 22 44 31 8 34 7 28 -9z m93 7 c12 -8 9 -11 -12 -16 -32 -8 -33 -13 -9
-31 16 -13 16 -13 -1 -14 -25 0 -57 18 -57 33 0 32 47 48 79 28z m292 -7 c18
-22 0 -48 -37 -52 -24 -2 -26 -1 -11 8 24 15 21 27 -10 35 -21 5 -24 8 -12 16
22 14 55 11 70 -7z m64 2 c23 -16 14 -46 -15 -46 -16 0 -20 7 -20 30 0 33 7
37 35 16z m-1423 -19 c-12 -13 -22 -27 -22 -33 0 -5 5 -2 10 6 6 10 10 11 10
3 0 -15 -35 -53 -49 -53 -16 0 -29 25 -22 43 7 20 59 57 80 57 10 0 8 -7 -7
-23z m2399 0 c36 -24 49 -55 28 -68 -17 -10 -45 6 -60 34 -12 21 -11 21 6 7
17 -13 18 -13 10 0 -4 8 -15 23 -23 33 -21 24 -1 21 39 -6z m-2321 -53 c0 -6
-6 -17 -14 -23 -11 -10 -17 -7 -30 11 -9 12 -16 32 -16 43 1 18 2 18 15 -5 14
-25 14 -25 9 10 l-6 35 21 -30 c11 -16 21 -35 21 -41z m2256 3 c-8 -32 -33
-42 -45 -18 -7 13 -4 27 11 52 20 33 21 33 31 12 5 -12 7 -33 3 -46z m-1636 8
c0 -47 38 -74 82 -57 30 11 30 11 13 -8 -36 -39 -95 -16 -115 45 -11 34 -7 55
11 55 5 0 9 -16 9 -35z m988 2 c7 -56 -85 -112 -118 -72 -11 13 -8 14 19 9 44
-9 85 28 77 69 -4 20 -2 27 7 25 6 -3 13 -17 15 -31z"/>
<path d="M652 498 c8 -12 25 -28 39 -37 18 -11 16 -6 -10 22 -39 42 -50 48
-29 15z"/>
<path d="M2280 485 c-19 -19 -29 -35 -24 -35 13 0 69 58 63 65 -3 2 -21 -11
-39 -30z"/>
</g>
</svg>
