<?xml version="1.0" standalone="no"?>
<svg version="1.0" xmlns="http://www.w3.org/2000/svg"
 width="512.000000pt" height="512.000000pt" viewBox="0 0 512.000000 512.000000"
 preserveAspectRatio="xMidYMid meet">
<g transform="translate(0.000000,512.000000) scale(0.100000,-0.100000)"
fill="#000000" stroke="none">
<path d="M2193 5105 c-43 -18 -65 -56 -75 -128 -16 -120 -78 -181 -213 -212
-298 -68 -569 -228 -751 -446 -161 -193 -258 -412 -294 -666 -9 -61 -16 -83
-27 -83 -30 0 -86 -34 -104 -64 -18 -29 -19 -62 -19 -636 0 -581 1 -606 19
-637 16 -26 67 -55 279 -162 l259 -130 -9 -53 c-5 -29 -22 -85 -38 -125 -62
-154 -128 -231 -329 -382 -91 -69 -162 -129 -169 -145 -28 -62 -6 -143 48
-171 35 -18 1454 -445 1479 -445 21 0 76 16 866 253 319 96 595 182 613 191
56 29 79 108 50 172 -7 16 -78 76 -169 145 -201 151 -267 228 -329 382 -16 40
-33 96 -38 125 l-9 53 259 130 c212 107 263 136 279 162 18 31 19 56 19 637 0
574 -1 607 -19 636 -18 30 -74 64 -104 64 -11 0 -18 22 -27 83 -36 252 -128
463 -286 656 -186 226 -453 387 -759 456 -135 31 -197 92 -213 212 -10 73 -32
110 -77 129 -42 17 -71 17 -112 -1z m101 -490 c60 -49 142 -84 271 -116 218
-53 380 -144 525 -296 98 -101 146 -170 201 -287 36 -78 87 -241 78 -250 -2
-2 -249 69 -549 160 -300 90 -556 163 -570 163 -14 0 -270 -73 -570 -164 -300
-90 -547 -162 -549 -159 -9 9 42 172 78 250 55 117 103 186 201 287 147 154
307 243 532 298 127 32 211 68 268 118 19 17 36 30 38 31 2 0 23 -16 46 -35z
m130 -946 c94 -28 221 -66 281 -84 185 -57 815 -245 820 -245 3 0 4 -215 3
-477 l-3 -478 -637 -320 -638 -320 -637 320 -638 320 -3 476 -2 475 632 191
c348 105 637 192 642 192 5 1 86 -22 180 -50z m-175 -2199 c32 0 114 37 389
174 l349 174 22 -76 c49 -166 143 -316 278 -442 41 -39 74 -73 71 -75 -2 -2
-252 -79 -556 -170 l-551 -166 -553 166 c-304 91 -554 168 -556 169 -2 2 39
46 91 97 51 52 108 115 125 141 50 73 109 198 133 281 l23 75 348 -174 c275
-137 356 -174 387 -174z"/>
<path d="M1914 3400 c-11 -4 -33 -22 -47 -40 l-27 -32 0 -494 c0 -546 -1 -537
62 -570 67 -35 139 -15 178 49 19 31 20 54 20 510 0 528 0 529 -62 567 -34 21
-87 25 -124 10z"/>
<path d="M2462 3390 c-62 -38 -62 -40 -62 -567 0 -456 1 -479 20 -510 39 -64
111 -84 178 -49 63 33 62 24 62 571 l0 495 -33 36 c-43 47 -113 57 -165 24z"/>
<path d="M1332 3220 c-58 -36 -62 -58 -62 -370 0 -297 4 -324 48 -364 31 -27
107 -33 147 -12 64 35 65 41 65 380 l0 306 -33 36 c-43 47 -113 57 -165 24z"/>
<path d="M3044 3230 c-11 -4 -33 -22 -47 -40 l-27 -32 0 -305 c0 -338 1 -344
65 -379 40 -21 116 -15 147 12 44 40 48 67 48 364 0 312 -4 334 -62 370 -34
21 -87 25 -124 10z"/>
</g>
</svg>
