<?xml version="1.0" standalone="no"?>
<svg version="1.0" xmlns="http://www.w3.org/2000/svg"
 width="900.000000pt" height="900.000000pt" viewBox="0 0 900.000000 900.000000"
 preserveAspectRatio="xMidYMid meet">
<g transform="translate(0.000000,900.000000) scale(0.100000,-0.100000)"
fill="#000000" stroke="none">
<path d="M4407 8985 c-4 -8 -21 -21 -40 -29 -41 -17 -107 -92 -126 -144 -7
-20 -17 -78 -21 -128 -4 -49 -12 -99 -17 -110 -6 -10 -19 -37 -29 -58 -29 -61
-111 -139 -184 -174 -71 -35 -183 -72 -216 -72 -31 0 -219 -51 -324 -88 -115
-40 -337 -143 -466 -216 -222 -125 -477 -336 -658 -546 -272 -316 -433 -615
-549 -1020 -34 -120 -77 -356 -77 -425 0 -27 -4 -55 -8 -61 -4 -6 -36 -21 -71
-33 -91 -31 -114 -45 -153 -90 -72 -85 -68 -3 -68 -1301 0 -1085 1 -1168 17
-1214 38 -104 45 -108 589 -380 275 -137 501 -251 504 -253 10 -9 0 -119 -15
-168 -9 -27 -23 -75 -31 -105 -18 -60 -71 -193 -90 -225 -7 -11 -21 -36 -31
-55 -83 -155 -269 -357 -451 -490 -56 -41 -129 -95 -161 -120 -33 -25 -90 -67
-127 -95 -119 -89 -160 -131 -183 -191 -11 -31 -21 -72 -21 -92 0 -53 29 -128
68 -172 32 -38 144 -100 179 -100 10 0 35 -6 58 -14 47 -16 101 -32 245 -75
58 -17 125 -38 150 -45 50 -16 225 -68 310 -93 30 -9 73 -22 95 -29 22 -7 87
-26 145 -43 58 -17 125 -38 150 -45 50 -16 225 -68 310 -93 30 -9 73 -22 95
-28 22 -7 67 -21 100 -30 33 -10 78 -24 100 -30 22 -7 67 -21 100 -30 33 -10
78 -24 100 -30 22 -7 67 -21 100 -30 33 -10 78 -24 100 -30 22 -7 67 -21 100
-30 33 -10 78 -24 100 -30 22 -7 67 -21 100 -30 33 -10 78 -24 100 -30 22 -7
67 -21 100 -30 33 -10 70 -22 83 -26 31 -12 168 -11 206 0 38 12 225 68 286
85 25 8 72 21 105 31 33 10 76 23 95 30 19 7 64 21 100 30 36 10 83 23 105 30
36 12 162 50 305 92 30 9 73 22 95 29 22 7 87 27 145 44 58 17 150 44 205 61
169 51 188 57 250 75 33 9 78 23 100 30 22 7 87 27 145 44 58 16 125 37 150
45 25 7 92 28 150 45 133 39 187 55 280 84 41 13 111 33 155 46 186 52 262
105 298 206 45 128 -5 239 -156 347 -98 70 -120 87 -160 120 -22 18 -47 36
-56 41 -9 6 -61 43 -116 85 -174 130 -353 325 -433 471 -79 144 -113 230 -156
395 -21 85 -27 135 -16 155 5 10 233 129 506 266 542 271 549 276 587 380 16
46 17 129 17 1214 0 1298 4 1216 -68 1301 -37 43 -75 65 -162 95 -30 10 -58
23 -62 29 -4 5 -8 33 -8 60 0 69 -43 305 -77 425 -182 637 -550 1138 -1105
1503 -48 31 -98 62 -110 67 -13 6 -39 20 -58 31 -61 37 -120 66 -275 134 -45
20 -159 61 -210 75 -64 19 -212 57 -260 67 -148 32 -241 77 -311 149 -73 74
-104 145 -114 258 -5 50 -14 108 -22 128 -18 51 -84 127 -125 144 -19 8 -36
21 -40 29 -4 11 -24 15 -83 15 -59 0 -79 -4 -83 -15z m124 -961 c87 -94 288
-205 424 -234 22 -5 53 -13 68 -19 16 -6 40 -11 54 -11 27 0 69 -11 243 -66
152 -47 345 -135 447 -204 24 -17 47 -30 50 -30 18 0 259 -196 333 -270 229
-231 400 -507 509 -820 24 -69 71 -256 71 -282 0 -13 -47 -9 -82 6 -18 8 -62
22 -98 31 -36 10 -83 23 -105 30 -51 16 -234 72 -300 91 -27 8 -84 25 -125 38
-41 13 -111 33 -155 46 -44 13 -118 35 -165 50 -47 15 -114 35 -150 45 -36 10
-83 24 -105 31 -22 7 -87 27 -145 44 -158 46 -197 58 -295 89 -49 15 -119 36
-155 46 -36 10 -99 29 -140 42 -192 61 -236 64 -360 24 -36 -11 -90 -28 -120
-37 -30 -9 -75 -22 -100 -30 -25 -7 -92 -28 -150 -45 -58 -17 -123 -36 -145
-43 -22 -7 -67 -21 -100 -31 -66 -19 -138 -41 -200 -60 -22 -6 -67 -20 -100
-30 -33 -10 -78 -23 -100 -30 -22 -7 -67 -20 -100 -30 -33 -9 -78 -23 -100
-30 -22 -6 -67 -20 -100 -30 -33 -9 -78 -23 -100 -30 -22 -7 -67 -20 -100 -30
-33 -9 -73 -21 -90 -27 -16 -5 -50 -15 -75 -23 -107 -31 -235 -69 -303 -90
-69 -22 -117 -29 -117 -19 0 15 27 135 43 194 106 378 347 756 642 1006 69 58
221 174 229 174 3 0 25 13 49 30 47 32 207 114 292 150 97 42 299 101 460 135
44 9 96 23 115 30 172 64 246 106 357 207 24 21 49 38 56 38 7 0 24 -12 38
-26z m-5 -1843 c16 -5 56 -17 89 -26 33 -10 78 -24 100 -30 22 -7 67 -21 100
-30 33 -10 78 -24 100 -30 22 -7 67 -21 100 -30 33 -10 78 -24 100 -30 22 -7
67 -21 100 -30 33 -10 78 -24 100 -30 22 -7 67 -21 100 -30 33 -10 78 -24 100
-30 22 -7 67 -21 100 -30 33 -10 78 -24 100 -30 22 -7 67 -21 100 -30 33 -10
78 -24 100 -30 22 -7 67 -21 100 -30 33 -10 78 -24 100 -31 22 -7 87 -26 145
-43 58 -17 125 -37 150 -45 25 -7 72 -21 105 -31 33 -10 78 -23 100 -30 22 -7
67 -21 100 -30 33 -10 78 -23 100 -30 22 -7 67 -20 100 -30 33 -9 76 -24 95
-34 l35 -16 3 -936 c2 -738 -1 -939 -10 -952 -14 -18 -2524 -1277 -2547 -1277
-22 0 -2535 1259 -2549 1277 -9 13 -12 219 -12 950 l0 933 23 14 c12 8 36 18
52 21 17 4 46 12 65 19 32 12 60 21 205 62 28 8 93 28 145 44 52 16 118 36
145 44 28 8 97 29 155 46 117 36 167 51 255 76 33 9 76 22 95 29 81 28 139 45
154 45 8 0 30 6 48 14 18 7 60 21 93 31 33 9 78 23 100 30 22 6 65 19 95 28
153 43 178 51 210 62 19 7 60 20 90 28 81 24 259 77 310 93 117 37 306 92 316
93 6 1 24 -3 40 -8z m-812 -4140 c428 -214 696 -342 727 -348 32 -7 67 -7 97
-1 27 6 336 154 730 350 375 188 684 339 686 337 12 -13 36 -71 36 -86 0 -42
92 -285 148 -393 118 -225 301 -453 485 -605 53 -44 96 -84 94 -88 -2 -8 -58
-28 -177 -63 -30 -9 -73 -22 -95 -29 -22 -6 -67 -20 -100 -30 -33 -9 -78 -23
-100 -30 -22 -6 -67 -20 -100 -30 -33 -9 -78 -23 -100 -30 -22 -6 -67 -20
-100 -30 -33 -9 -78 -23 -100 -30 -22 -6 -67 -20 -100 -30 -33 -9 -78 -23
-100 -30 -22 -6 -67 -20 -100 -30 -33 -9 -78 -23 -100 -30 -22 -6 -67 -20
-100 -30 -33 -9 -78 -23 -100 -30 -22 -7 -67 -20 -100 -30 -33 -10 -78 -23
-100 -30 -22 -6 -67 -20 -100 -30 -33 -10 -78 -23 -100 -30 -22 -7 -67 -20
-100 -30 -60 -17 -89 -26 -197 -61 -54 -17 -61 -17 -105 -2 -27 9 -95 31 -153
48 -58 16 -125 37 -150 45 -25 7 -92 28 -150 45 -58 16 -125 36 -150 44 -123
38 -261 79 -310 93 -30 9 -73 22 -95 28 -22 7 -67 21 -100 30 -33 10 -78 24
-100 30 -77 24 -140 43 -200 60 -33 10 -75 24 -93 31 -18 8 -40 14 -50 14 -9
0 -34 6 -57 14 -40 13 -87 28 -200 61 -33 10 -78 24 -100 30 -22 7 -67 21
-100 30 -33 10 -80 25 -105 33 -25 8 -51 16 -58 18 -21 6 -4 25 96 109 180
150 358 373 474 595 57 108 148 351 148 393 0 23 29 87 39 87 4 0 312 -152
685 -339z"/>
<path d="M3823 5550 c-23 -10 -62 -39 -86 -63 -81 -80 -77 -30 -77 -1082 0
-1065 -5 -1003 84 -1090 105 -102 258 -102 361 0 91 92 85 18 85 1090 0 867
-1 944 -17 988 -51 143 -218 217 -350 157z"/>
<path d="M4942 5544 c-63 -31 -111 -86 -135 -151 -16 -44 -17 -121 -17 -988 0
-1064 -5 -997 80 -1085 103 -106 260 -108 366 -5 89 87 84 25 84 1090 0 1052
4 1002 -77 1082 -86 87 -199 108 -301 57z"/>
<path d="M2723 5222 c-65 -22 -133 -77 -164 -134 l-24 -43 0 -595 c0 -591 0
-595 22 -635 62 -116 182 -174 296 -145 79 20 122 52 176 135 l26 40 0 600 c0
600 0 600 -22 641 -33 62 -100 116 -170 137 -71 20 -74 20 -140 -1z"/>
<path d="M6110 5221 c-65 -21 -132 -77 -163 -134 l-22 -42 0 -600 0 -600 26
-40 c54 -83 97 -115 176 -135 114 -29 234 29 296 145 22 40 22 44 22 635 l0
595 -24 43 c-31 57 -99 112 -164 134 -65 21 -79 21 -147 -1z"/>
</g>
</svg>
