<?xml version="1.0" standalone="no"?>
<svg version="1.0" xmlns="http://www.w3.org/2000/svg"
 width="900.000000pt" height="900.000000pt" viewBox="0 0 900.000000 900.000000">
<g transform="translate(0.000000,900.000000) scale(0.100000,-0.100000)"
fill="#000000" stroke="none">
<path d="M142 8957 c-5 -6 -15 -30 -22 -52 -7 -22 -18 -56 -25 -75 -36 -102
-69 -241 -84 -355 -14 -103 -14 -540 0 -659 14 -128 56 -349 84 -446 7 -25 21
-72 30 -105 9 -33 21 -71 27 -85 5 -13 18 -51 29 -85 19 -55 61 -163 94 -240
76 -176 238 -477 345 -640 52 -79 166 -241 198 -280 4 -5 36 -46 70 -90 100
-129 130 -166 200 -245 117 -134 533 -542 677 -665 77 -65 142 -122 145 -125
3 -3 28 -23 55 -45 28 -21 55 -44 60 -50 6 -6 69 -57 140 -113 72 -56 148
-117 170 -135 22 -18 56 -44 75 -57 19 -13 37 -27 40 -30 8 -9 130 -100 134
-100 3 0 49 -33 103 -73 54 -41 130 -96 168 -122 39 -27 102 -71 140 -97 39
-27 154 -105 256 -173 102 -68 191 -130 197 -138 15 -17 -35 -58 -618 -507
-107 -82 -260 -199 -339 -260 -79 -60 -153 -110 -165 -110 -12 0 -41 16 -66
35 -25 19 -119 90 -210 158 l-165 122 -7 60 c-12 107 -54 191 -134 264 -96 88
-178 121 -299 121 -92 0 -155 -18 -232 -68 -74 -47 -127 -106 -165 -181 -30
-60 -33 -75 -36 -175 -4 -111 -2 -123 47 -225 40 -87 187 -199 283 -218 18 -3
39 -11 47 -17 43 -33 311 -358 311 -376 0 -11 -17 -35 -37 -53 -263 -228 -693
-648 -904 -883 -111 -124 -187 -210 -228 -259 -122 -145 -143 -165 -184 -176
-117 -32 -232 -117 -286 -212 -53 -93 -63 -137 -59 -266 3 -112 5 -121 40
-192 43 -86 107 -155 187 -203 74 -43 95 -48 228 -53 86 -3 123 0 160 12 80
27 150 73 202 133 76 86 113 172 127 296 l7 60 161 161 c145 145 393 374 521
480 26 22 53 45 59 50 6 6 44 38 85 70 219 177 488 378 500 373 5 -2 92 -101
195 -220 169 -197 186 -221 186 -254 0 -59 30 -144 77 -215 187 -287 607 -256
763 56 33 68 34 74 34 185 0 111 -2 118 -35 185 -58 118 -183 221 -290 239
-20 4 -43 14 -51 24 -9 9 -57 98 -108 197 -51 99 -100 192 -108 207 -15 25
-14 29 2 47 9 10 60 45 112 78 53 32 106 65 119 73 13 8 56 35 95 60 39 25 83
53 98 62 15 9 37 23 49 30 13 7 76 46 140 86 65 40 127 79 138 85 11 7 39 24
63 39 24 16 45 28 49 28 3 0 25 13 50 30 24 16 46 30 49 30 2 0 23 12 47 27
23 15 57 36 76 46 19 10 52 31 75 45 60 39 79 50 101 61 11 5 36 20 55 33 19
13 42 27 50 31 8 4 24 13 35 20 145 88 152 89 222 41 21 -14 47 -30 58 -35 11
-5 34 -18 50 -29 17 -11 39 -24 50 -30 11 -6 34 -19 50 -30 17 -11 37 -23 45
-27 8 -4 33 -19 55 -34 22 -14 59 -37 82 -50 23 -13 74 -44 114 -68 40 -24 82
-49 93 -55 12 -6 39 -23 61 -36 23 -14 50 -30 60 -37 52 -31 310 -190 333
-205 15 -10 36 -22 47 -28 11 -6 54 -33 95 -60 41 -27 116 -74 167 -105 136
-84 134 -80 88 -167 -21 -40 -71 -136 -111 -213 -73 -141 -101 -175 -149 -175
-45 0 -174 -85 -219 -145 -15 -19 -41 -63 -59 -98 -30 -59 -32 -67 -31 -177 0
-110 2 -118 34 -183 131 -264 438 -337 671 -160 91 68 169 215 169 317 0 33
15 55 153 214 83 98 168 197 187 220 19 23 38 42 42 42 8 0 156 -108 283 -205
39 -30 86 -67 106 -82 54 -42 183 -146 189 -153 3 -3 34 -30 70 -60 152 -128
366 -325 516 -475 l161 -161 7 -60 c13 -116 37 -178 102 -264 99 -131 201
-180 373 -180 132 0 200 20 286 85 86 65 153 158 170 236 4 16 13 29 21 29 11
0 14 22 14 110 0 97 -2 112 -20 130 -11 11 -20 27 -20 37 0 32 -71 142 -123
189 -55 51 -132 93 -204 113 -41 11 -62 31 -184 176 -40 48 -113 131 -228 259
-190 212 -661 675 -853 837 -61 52 -87 81 -87 97 -1 16 45 77 147 195 82 95
155 177 163 183 8 6 29 14 47 17 129 25 267 153 315 292 23 67 23 220 1 272
-52 122 -95 176 -187 235 -77 50 -140 68 -232 68 -225 0 -412 -168 -434 -390
l-6 -55 -110 -84 c-193 -146 -316 -231 -335 -231 -14 0 -311 215 -330 239 -3
4 -61 49 -130 101 -136 102 -252 191 -260 200 -3 3 -34 28 -70 55 -36 27 -127
98 -203 158 -113 90 -135 112 -125 124 9 12 381 265 437 298 9 6 44 29 76 53
33 23 121 86 195 139 116 83 309 227 430 320 98 76 276 219 285 228 6 6 33 29
60 50 28 22 52 42 55 45 3 3 70 62 150 130 129 111 540 512 645 630 66 73 187
220 240 290 27 36 53 70 58 75 33 42 146 201 197 280 107 164 262 452 345 640
126 289 227 648 255 909 11 104 16 120 31 111 5 -4 9 101 9 268 0 228 -2 276
-14 280 -9 4 -17 27 -20 64 -9 90 -45 243 -81 343 -7 19 -19 54 -26 78 -23 78
-29 74 -130 -70 -126 -181 -297 -399 -355 -453 -5 -5 -48 -52 -95 -104 -74
-83 -228 -231 -374 -360 -115 -102 -398 -303 -535 -380 -155 -88 -357 -176
-495 -216 -161 -47 -151 -41 -195 -129 -22 -45 -56 -110 -76 -146 -20 -36 -52
-94 -71 -130 -20 -36 -48 -83 -62 -105 -14 -22 -30 -48 -36 -57 -5 -9 -30 -49
-55 -88 -25 -39 -52 -82 -60 -95 -30 -48 -207 -298 -273 -386 -127 -169 -328
-412 -502 -605 -222 -247 -685 -714 -905 -914 -63 -57 -116 -108 -118 -112 -5
-10 -59 -10 -64 0 -1 4 -55 55 -118 112 -250 227 -692 674 -910 920 -41 46
-93 105 -115 130 -146 163 -347 416 -474 595 -27 39 -77 108 -111 155 -33 47
-63 92 -67 100 -4 8 -25 42 -48 75 -23 34 -45 67 -49 75 -8 18 -22 40 -57 95
-14 22 -43 72 -64 110 -21 39 -48 86 -59 105 -12 19 -45 83 -74 141 l-53 106
-52 16 c-131 42 -266 87 -302 102 -70 30 -238 114 -290 145 -27 16 -57 33 -65
37 -8 4 -55 34 -105 67 -449 298 -890 743 -1214 1223 -69 103 -74 108 -89 90z
m199 -699 c115 -140 348 -376 519 -524 95 -83 382 -304 394 -304 3 0 34 -20
70 -45 37 -25 68 -45 71 -45 3 0 22 -11 43 -24 124 -78 423 -213 569 -256 45
-14 62 -28 84 -72 8 -15 25 -48 39 -75 13 -26 43 -79 65 -118 23 -38 44 -77
48 -85 4 -8 15 -27 25 -42 9 -14 30 -48 46 -75 89 -147 318 -475 479 -682 335
-434 923 -1055 1452 -1535 66 -60 138 -125 160 -145 34 -32 449 -387 585 -500
87 -73 449 -364 610 -490 52 -41 124 -98 160 -126 36 -28 77 -60 91 -71 26
-19 252 -192 384 -294 39 -30 92 -71 118 -90 25 -19 46 -40 47 -47 0 -6 -19
-24 -41 -40 -62 -42 -86 -69 -118 -137 -16 -33 -36 -69 -43 -80 -17 -22 -16
-22 -173 79 -55 35 -153 97 -218 137 -65 40 -128 80 -141 88 -13 8 -337 204
-721 435 -383 231 -709 428 -723 437 -15 10 -36 22 -47 28 -11 6 -32 18 -47
28 -14 9 -80 50 -145 90 -195 121 -377 238 -623 402 -146 97 -211 142 -461
319 -150 106 -246 178 -394 293 -833 648 -1351 1187 -1715 1783 -102 167 -253
472 -290 585 -5 14 -18 50 -30 80 -70 182 -123 382 -165 625 -16 93 -33 490
-22 519 10 25 20 20 58 -26z m8362 -4 c11 -49 -8 -373 -29 -504 -27 -166 -87
-411 -120 -488 -8 -18 -14 -39 -14 -47 0 -8 -6 -29 -14 -47 -8 -18 -22 -53
-31 -78 -17 -45 -24 -60 -66 -155 -25 -58 -135 -283 -149 -305 -5 -8 -32 -55
-61 -105 -88 -151 -232 -361 -354 -517 -280 -358 -706 -771 -1195 -1162 -47
-37 -105 -84 -129 -104 -45 -36 -334 -253 -407 -305 -21 -16 -79 -57 -129 -92
-49 -35 -117 -83 -150 -107 -32 -24 -67 -47 -76 -53 -10 -5 -91 -59 -181 -119
-90 -60 -196 -131 -236 -157 -40 -27 -76 -49 -80 -49 -4 0 -32 22 -63 48 -31
26 -87 72 -124 102 -38 30 -77 63 -87 73 -10 10 -62 54 -116 99 -125 104 -187
167 -176 177 237 206 799 766 1019 1016 48 55 91 102 94 105 20 16 179 206
303 362 157 199 338 445 393 536 6 9 22 33 36 52 14 19 50 75 80 123 30 48 62
100 71 115 10 15 21 34 25 42 4 8 19 36 34 61 42 71 89 158 115 210 28 55 37
63 89 79 192 60 424 168 625 290 90 54 158 101 287 197 83 62 157 119 165 126
7 7 51 46 98 87 150 131 386 371 490 498 19 23 39 41 44 39 6 -2 14 -21 19
-43z m-4948 -4765 c4 -5 17 -15 28 -20 12 -5 34 -17 49 -27 75 -48 275 -170
314 -192 30 -17 44 -31 43 -45 0 -16 -93 -76 -426 -275 -234 -140 -436 -262
-449 -270 -12 -8 -76 -48 -141 -88 -65 -40 -152 -95 -193 -122 -41 -27 -99
-64 -129 -81 -63 -37 -60 -39 -114 70 -35 70 -55 93 -116 134 -22 16 -41 34
-41 40 1 7 30 35 67 62 157 119 425 326 583 449 74 59 167 130 205 160 39 30
115 90 170 135 95 76 135 95 150 70z m-2249 -224 c42 -17 56 -31 79 -75 74
-143 -102 -293 -230 -195 -82 62 -89 171 -17 245 37 37 112 49 168 25z m6085
2 c126 -44 134 -216 14 -284 -49 -28 -84 -29 -134 -3 -70 35 -108 109 -91 172
29 101 116 148 211 115z m-5679 -524 c66 -49 190 -140 276 -203 87 -64 180
-131 207 -150 68 -47 91 -73 129 -150 18 -36 68 -132 111 -215 42 -82 113
-219 156 -302 l78 -153 -27 -25 c-15 -14 -37 -28 -50 -32 -24 -6 -35 4 -120
106 -20 25 -53 63 -73 85 -20 23 -47 54 -60 70 -13 16 -28 34 -34 40 -18 20
-121 140 -146 170 -13 16 -31 36 -40 45 -8 9 -51 59 -94 111 -44 52 -82 97
-86 100 -3 3 -44 50 -89 105 -46 55 -86 102 -90 105 -4 3 -33 37 -66 75 -77
92 -95 112 -121 141 -12 13 -34 40 -49 59 l-27 35 39 35 c22 19 43 34 47 35 5
0 63 -39 129 -87z m5328 55 c49 -42 49 -41 -90 -198 -32 -36 -75 -86 -96 -112
-73 -87 -197 -233 -208 -243 -6 -5 -47 -53 -91 -105 -44 -52 -89 -106 -101
-120 -12 -14 -44 -50 -70 -81 -27 -30 -69 -79 -94 -109 -95 -113 -185 -217
-232 -269 -54 -59 -72 -62 -120 -16 l-27 25 91 178 c50 97 115 222 144 277 28
55 75 145 103 200 l52 100 162 119 c89 66 189 139 222 164 33 24 114 83 180
132 66 49 124 90 128 90 5 0 26 -15 47 -32z m-5324 -736 c24 -16 172 -196 168
-204 -3 -5 -85 -68 -182 -141 -188 -141 -291 -223 -437 -346 -164 -138 -353
-310 -504 -458 -80 -79 -121 -113 -138 -113 -13 0 -23 4 -23 9 0 4 -18 21 -40
36 -22 15 -40 32 -40 38 0 8 58 81 105 133 5 6 48 53 95 105 245 271 508 534
785 786 200 181 187 172 211 155z m5224 -33 c383 -345 638 -597 917 -904 106
-118 203 -234 203 -244 0 -5 -18 -21 -40 -36 -22 -15 -40 -32 -40 -36 0 -5
-11 -9 -24 -9 -17 0 -57 33 -137 113 -248 244 -511 472 -854 740 -33 25 -106
80 -162 121 -55 41 -103 79 -106 83 -5 9 142 189 167 205 19 13 30 9 76 -33z
m-3949 -711 c93 -69 91 -192 -4 -260 -47 -34 -132 -31 -180 6 -51 39 -74 103
-57 159 25 85 67 117 153 117 44 0 65 -5 88 -22z m2781 -3 c28 -19 41 -38 54
-79 16 -50 16 -56 -1 -99 -25 -67 -72 -100 -144 -101 -43 -1 -64 5 -88 22 -95
68 -98 183 -6 258 41 34 134 34 185 -1z m-5414 -676 c149 -73 131 -301 -30
-355 -44 -14 -58 -15 -105 -3 -64 15 -118 63 -139 124 -18 52 -17 71 2 128 17
50 78 112 118 120 55 11 112 6 154 -14z m8067 -14 c45 -33 61 -58 76 -117 14
-52 2 -109 -34 -159 -42 -58 -129 -85 -210 -63 -165 42 -188 275 -34 354 59
30 152 23 202 -15z"/>
</g>
</svg>
