<svg xmlns="http://www.w3.org/2000/svg" version="1.0" viewBox="0 0 900 900"><path d="m441 2-4 2c-4 2-11 10-13 15l-2 12c-2 21-15 35-38 40a275 275 0 0 0-52 17l-35 17-11 8a252 252 0 0 0-103 129c-3 7-1 10 7 7 2-1 6-3 10-3a500 500 0 0 0 46-14 787 787 0 0 1 44-13l10-3a364 364 0 0 0 25-8 1782 1782 0 0 0 60-18l15-4 14-5c17-5 21-6 35-6 15 0 16 0 40 8l10 3 10 3 10 3 10 3 10 3 10 3 10 3 10 3 10 3 10 3 10 3 10 3 10 3 10 3 10 3 10 3 10 3 10 3 10 3 10 3a290 290 0 0 0 19 6c8 2 10 0 7-7l-4-8c-7-20-20-44-34-62-16-22-43-46-66-61l-9-5a405 405 0 0 0-52-24l-10-3-27-8c-11-3-18-6-25-13s-11-16-12-27l-2-12c-2-5-9-13-13-15l-4-2c0-2-2-2-8-2s-8 0-8 2z"/><path d="m444 228-9 2-11 3a927 927 0 0 1-20 7l-10 3c-4 0-8 2-10 3l-10 3c-4 0-8 2-10 3l-10 3c-4 0-8 2-10 3l-10 3-10 3-10 3-10 3-10 3-10 3-10 3c-4 0-8 2-10 3l-10 3-10 3-10 3-10 3-10 3c-4 0-8 2-10 3l-10 3c-4 0-8 2-10 3l-10 3c-20 5-23 7-27 12-7 8-7 0-7 130 0 109 0 117 2 121 4 11-5 7 153 86l149 73h10l149-73c158-79 149-74 153-86 2-4 2-12 2-121 0-132 1-122-8-131-4-5-11-8-20-10l-6-2-9-3a150 150 0 0 1-19-5l-12-4-9-2-9-3-11-4-30-8-10-3a1003 1003 0 0 1-60-18l-10-3a1881 1881 0 0 0-101-27zm-41 117c6 3 12 10 14 16 2 4 2 11 2 99 0 106 1 99-8 108a25 25 0 0 1-37 0c-8-9-8-3-8-109 0-105 0-100 8-108l8-6c6-3 15-3 21 0zm112 0c8 3 13 9 16 18 2 5 2 187 0 193-6 20-30 27-44 12-8-9-8-2-8-108 0-88 0-95 2-99 2-6 8-13 14-16 5-2 15-3 20 0zm-227 33c6 2 12 8 15 13l3 4v60c0 59 0 60-3 64-6 11-17 17-29 14-5-1-12-5-15-9l-3-5c-2-4-2-4-2-64v-59l2-5c4-6 10-11 14-13h18zm339 0c5 2 11 7 15 13l2 4v60c0 59 0 59-2 63-3 6-4 7-8 11-13 9-31 5-39-10-2-4-2-5-2-64v-59l2-5c3-5 9-11 14-13h18z"/><path d="m236 689-2 3c-10 19-32 40-66 63l-20 16c-4 4-8 13-8 19 0 5 3 13 7 17 3 4 14 10 18 10l6 1 24 8 15 4a2413 2413 0 0 0 41 13l14 4 15 4 31 10 10 2c2 1 6 3 10 3l10 3c2 1 6 3 10 3l10 3c2 1 6 3 10 3l10 3c2 1 6 3 10 3l10 3a1264 1264 0 0 0 50 13l12-2a421 421 0 0 0 36-11l14-4 15-4a2413 2413 0 0 1 70-21l30-10 15-4 16-5a775 775 0 0 0 39-11l31-10c12-3 17-5 21-10 5-5 8-12 8-18 0-9-6-18-16-25l-8-6-26-19a167 167 0 0 1-46-52l-89 44-93 46c-19 8-41 8-60 1a7477 7477 0 0 1-183-91l-1 1z"/></svg>