<svg version="1.0" xmlns="http://www.w3.org/2000/svg" width="1200" height="1200" viewBox="0 0 900 900"><g fill="#000000" stroke="none"><path d="m70 28-2 12-2 8h-3l-11-2c-9-1-9-1-8 10l1 10 1 3-8 1c-9 0-16 3-16 6 0 2 7 7 17 13l7 4-4 4c-4 5-11 15-12 19l-5 11c-2 4-1 6 3 6l12-5 4-1 8-5c6-5 13-13 13-15l2-3 1-3c0-3 3-4 5-2v8l-2 5-2 3-1 1-4 6-5 4v53l1 53c1-1 2-12 2-52v-51l2-3 6-6 3-5 1-2 2-4 1-5c0-4 1-5 6-6l5 1c2 3-8 22-14 29l-1 3-1 117 1 115 2 1h2V133l4-5 6-10 4-7 1-4 2-6c1-4 2-4 8-6l8-3 6-3 10-6 5-4h231v-5H130l-6 4c-9 6-25 13-27 13l-1-6c1-5 2-6 6-6l6-1 4-3c3-1 9-5 13-9 1-2 6-2 53-2 40 0 51-1 52-2l-53-1h-53l-3 4-6 5-4 2c-7 4-10 5-13 3-3 0-2-4 0-5 5-2 14-7 18-11l9-13 1-4 5-12c0-4-2-5-6-3a109 109 0 0 0-34 21l-4-7c-5-10-11-17-13-17-1 0-3 1-4 4zm55 7-2 6-1 3-1 3-2 2c0 2-6 8-10 12-9 6-14 7-14 3l-2-6-1-5 6-6c4-4 7-7 9-7l7-5 3-1 3-2 3-1c2 0 3 1 2 4zm-46 3 9 19c3 9 4 31 2 34-3 4-25 2-38-2-10-4-22-11-21-13h14c12 0 14 0 21 2l9 4c6 2 7 0 4-7-5-12-8-27-6-36l1-6h1l4 5zM64 54c3 2 4 3 5 9a125 125 0 0 0 4 11l-15-3c-5-2-8-6-8-11l-1-5c-1-3 0-4 6-3l9 2zm-8 41 6 2c3 0 3 2 1 7-4 7-13 17-15 17l-3 1-3 2-3 1-6 2c-4 1-4 1-4-1l2-4 1-3 1-3 5-8 13-14 5 1z"/><path d="m819 29-8 12-4 7-4-4-16-11-2-1-2-1-4-2-4-1-3-1-3-1c-2 0-2 0-2 3 1 4 2 9 5 13l1 4 9 13c4 4 13 9 18 11l2 3c-1 4-7 4-15-1l-3-2c-2 0-4-3-6-5l-4-4h-53l-53 1c1 1 12 2 52 2h52l4 4 10 7 4 3 6 1 4 1 1 10c-2 2-23-9-29-14l-3-2H536v5h231l5 4c7 5 16 9 24 12 6 2 7 2 8 6l2 6 2 4a356 356 0 0 0 9 16l4 7v230h2l2-1 1-115a6898 6898 0 0 0-2-120c-5-5-14-23-14-28 0-2 1-2 5-1 5 0 6 1 6 5l1 5 2 5 10 13c2 1 2 6 2 53 0 40 1 51 2 52l1-53v-53l-4-4c-2-2-5-4-5-6l-2-3c-4-8-5-12-2-14 1-1 4-1 4 1 0 3 7 14 11 18l13 9 4 1 12 5c5 1 5-2 0-12l-1-4-1-2-1-2-11-16-4-4 6-4c10-4 18-11 18-13 0-3-7-6-16-6l-7-1v-3l1-10c2-11 1-12-9-10l-11 2h-3v-8c-1-9-4-16-7-16l-5 5zm-41 3 3 2 3 1 7 5c2 0 5 3 9 7l6 6-1 5-2 6c0 4-5 3-14-4-4-3-10-9-10-11l-2-2-1-3-1-3c-2-2-3-9-2-9 1-2 4-1 5 0zm46 1 1 6c2 8-1 24-6 36-3 7-2 9 4 7 11-4 15-5 23-6 9-2 19-1 21 0 1 2-14 10-23 13-10 3-15 4-24 4-12 0-13-1-13-12 0-13 1-19 7-33l9-15h1zm25 19v3l-1 5c0 5-3 9-8 11l-15 3 1-2 3-9c1-6 2-8 4-9 6-3 15-4 16-2zm4 48c4 3 7 7 7 8l5 8 1 3 2 3 1 4c0 2 0 2-4 1-2 0-6-1-8-3l-6-3c-7-3-19-19-18-23l3-1 6-2 5-1 6 6z"/><path d="M73 539a4782 4782 0 0 0 2 236 229 229 0 0 1 12 23c2 6 2 7-5 5-4 0-4-1-5-5-1-7-5-13-11-20l-3-4-1-52c0-40-1-51-2-52l-1 53c0 47 0 53 2 54a63 63 0 0 1 12 18c2 3 1 8-2 9l-3-2-4-10-3-4a56 56 0 0 0-30-17c-4-2-7-2-7 0s1 6 4 11l1 4a101 101 0 0 0 17 23l-7 4c-9 5-17 11-17 13 0 3 7 6 16 7h8v3l-2 11c-2 10-1 11 9 9l11-2c3 0 3 0 3 4l1 8c0 5 3 12 6 12 2 0 7-7 12-17l4-7 5 3a105 105 0 0 0 23 16l7 2 5 1c1 0 1-4-1-7l-1-5-1-4-2-4a54 54 0 0 0-18-20l-1-1c-3 0-10-4-10-6 0-3 6-4 10-1l3 1 14 10c1 2 7 2 54 2l53-1c-1-1-12-2-52-2h-51l-4-3-7-6-3-2-11-4-4-1-1-5c-1-5-1-5 1-5 4 0 18 6 25 12l7 3 117 1 115-1v-4H131l-4-3a123 123 0 0 0-28-14c-4-1-4-2-6-6-2-8-7-19-12-26l-4-6V653c0-111 0-115-2-115l-2 1zM40 777l4 2 4 2c6 3 18 19 17 23l-3 1-6 2-5 2-7-7a70 70 0 0 1-14-23l-1-3c1-2 5-2 10 1zm50 34c3 3 1 26-3 37-5 11-11 22-12 21l-2-6c-1-7 1-22 4-30l4-13c-1-1-5-1-10 2-9 4-26 7-34 5l-6-2c0-1 10-7 16-9 13-6 18-7 31-7 8 0 10 0 11 2zm-20 26c-3 11-4 12-13 14-6 1-7 1-8-1v-4l1-4c0-4 3-9 7-10 18-5 16-6 13 5zm31 0c8 4 16 11 18 16l2 3c2 5 4 8 4 11 1 4 1 4-1 4l-4-1-3-2-2-1-6-3-11-8-6-7 1-6 3-7c0-1 2-1 5 1z"/><path d="M821 653v115l-4 7c-6 9-10 16-12 24-2 5-3 6-8 8-8 2-15 6-24 12l-7 4H536v2l1 2 116 1c111 0 117 0 119-2l16-10 12-4c2 0 2 2 1 8 0 2-1 3-4 3-8 2-15 5-22 12l-4 3h-51c-40 0-51 1-52 2l53 1h53l4-4 10-8 4-2c5-2 10-1 10 2 0 2-7 6-10 6l-1 1-4 3a54 54 0 0 0-17 25l-1 5c-2 2-2 7-1 8l5-2 6-2 5-2a109 109 0 0 0 23-17l4 6c5 10 10 18 13 18 2 0 2-1 4-4l2-8 1-7c0-5 0-5 3-4l11 1c10 2 10 1 9-9l-2-11v-3h8c9-1 16-4 16-7 0-2-8-8-17-13l-7-4 3-4c3-3 12-15 13-19l2-4 3-7 1-5c0-1-4-1-7 1l-5 1-4 2-4 1a54 54 0 0 0-20 18l-1 2-1 3-2 3c0 2-1 3-3 3s-3-1-3-4l1-5 2-4 9-13 3-3v-52l-1-52c-1 0-2 18-2 51v51l-3 4c-7 8-10 13-12 23-1 3-2 3-5 4h-6c-1-1 2-9 4-14a152 152 0 0 1 12-19V539l-3-1h-2v115zm48 124-2 3-1 3-1 3-2 3-13 17-5 2-12-4c-2-3 11-20 17-23l4-2c6-3 11-5 14-5l1 3zm-36 33c6 1 10 2 18 6 6 2 16 8 16 9l-6 2c-8 2-24-1-36-6-5-2-7-3-8-1l4 13c3 8 5 23 4 30l-2 6c0 1-4-4-7-11-6-12-8-19-9-34 0-14 0-15 12-15l14 1zm6 21c4 1 6 2 7 5l2 6 1 5c2 3-1 6-4 4l-6-1-5-2c-3-2-4-4-7-15l-2-5 4 1 10 2zm-37 5 2 7 2 6-4 5a74 74 0 0 1-24 15l-4 2c-2 0-2 0-1-4 0-3 2-7 4-11l2-4c2-4 10-11 17-15 4-2 6-2 6-1z"/></g></svg>