<?xml version="1.0" standalone="no"?>
<svg version="1.0" xmlns="http://www.w3.org/2000/svg"
 width="900.000000pt" height="900.000000pt" viewBox="0 0 900.000000 900.000000">
<g transform="translate(0.000000,900.000000) scale(0.100000,-0.100000)"
fill="#ffffff" stroke="none">
<path d="M4127 8986 c-4 -10 -32 -16 -94 -20 -154 -11 -470 -66 -648 -113 -85
-22 -253 -71 -300 -88 -93 -31 -222 -78 -250 -90 -16 -7 -50 -21 -75 -31 -63
-24 -398 -187 -458 -223 -27 -16 -75 -43 -106 -60 -49 -28 -123 -76 -321 -211
-338 -231 -812 -705 -1045 -1045 -103 -151 -203 -302 -211 -320 -5 -11 -19
-36 -31 -55 -38 -62 -203 -393 -237 -475 -18 -44 -37 -88 -42 -97 -20 -39
-121 -341 -154 -458 -9 -36 -23 -85 -30 -110 -40 -143 -95 -466 -114 -665 -14
-143 -14 -727 0 -870 19 -199 74 -522 114 -665 7 -25 21 -74 30 -110 38 -136
141 -440 156 -454 5 -6 9 -16 9 -23 0 -26 186 -410 254 -527 26 -42 46 -79 46
-82 0 -3 9 -17 19 -32 11 -15 49 -72 85 -127 143 -220 174 -261 349 -469 142
-168 450 -466 607 -586 25 -19 50 -40 55 -46 6 -6 32 -26 59 -45 27 -19 70
-49 95 -67 25 -18 91 -63 146 -98 55 -36 112 -74 127 -85 15 -10 29 -19 32
-19 2 0 38 -20 79 -44 94 -56 346 -181 452 -225 44 -18 94 -39 110 -46 53 -23
197 -73 300 -105 55 -17 115 -35 133 -41 56 -18 311 -79 329 -79 10 0 47 -6
83 -14 101 -23 253 -44 395 -57 142 -12 790 -6 930 9 203 22 503 81 695 137
25 8 72 21 105 31 33 9 76 22 95 29 19 7 76 27 125 45 50 17 102 38 117 46 14
8 31 14 37 14 6 0 50 18 98 41 49 22 124 57 168 77 44 20 85 39 91 44 6 4 45
26 88 48 43 22 95 52 117 65 21 14 41 25 44 25 3 0 18 9 33 19 15 10 79 53
142 94 508 332 955 779 1287 1287 41 63 84 127 94 142 10 15 19 29 19 32 0 3
20 40 46 82 65 111 254 501 254 525 0 6 6 23 14 37 26 50 76 196 150 442 61
203 117 497 136 715 8 83 15 123 25 131 13 9 15 67 15 364 0 297 -2 355 -15
364 -10 8 -17 48 -25 131 -19 217 -72 498 -135 715 -48 163 -122 383 -150 445
-7 17 -23 55 -36 85 -57 143 -185 399 -256 512 -13 21 -23 40 -23 43 0 3 -8
18 -19 33 -10 15 -65 97 -121 182 -57 85 -106 157 -109 160 -4 3 -18 21 -31
40 -13 19 -42 57 -65 84 -257 310 -404 457 -733 733 -68 57 -183 139 -322 230
-63 41 -127 84 -142 94 -15 10 -29 19 -32 19 -2 0 -37 19 -78 43 -40 24 -145
79 -233 121 -88 43 -167 82 -176 87 -60 29 -210 89 -314 124 -39 13 -81 28
-95 33 -32 12 -184 56 -295 85 -181 48 -495 102 -648 113 -62 4 -90 10 -94 20
-4 12 -65 14 -363 14 -298 0 -359 -2 -363 -14z m678 -1066 c214 -20 466 -67
620 -114 22 -7 67 -21 100 -31 33 -9 78 -24 100 -32 22 -8 56 -21 75 -28 75
-28 209 -86 288 -124 45 -23 85 -41 87 -41 2 0 39 -20 81 -45 41 -25 78 -45
80 -45 3 0 17 -8 32 -19 15 -10 77 -51 137 -91 99 -65 189 -132 263 -194 187
-156 332 -301 488 -488 100 -119 222 -296 317 -458 58 -100 197 -380 197 -398
0 -6 6 -23 14 -39 22 -43 64 -158 88 -238 47 -156 72 -256 92 -355 122 -612
87 -1191 -109 -1780 -51 -156 -65 -194 -76 -204 -5 -6 -9 -17 -9 -25 0 -42
-240 -488 -334 -619 -53 -74 -155 -211 -179 -239 -153 -183 -305 -336 -489
-489 -263 -220 -626 -429 -973 -561 -459 -174 -1026 -252 -1500 -205 -348 34
-728 124 -959 226 -32 14 -63 26 -68 26 -6 0 -76 32 -157 71 -474 231 -836
514 -1191 935 -24 28 -110 144 -176 236 -109 153 -268 450 -348 653 -65 165
-71 182 -91 250 -10 33 -21 69 -25 80 -32 87 -96 406 -110 550 -36 369 -36
441 0 810 14 144 78 463 110 550 4 11 15 47 25 80 23 80 53 162 108 295 83
200 190 397 330 605 238 356 630 741 955 940 9 6 44 28 77 50 33 22 83 52 110
68 78 43 371 187 382 187 6 0 37 12 69 26 130 57 362 126 564 167 193 39 176
37 495 67 108 10 345 6 510 -10z"/>
<path d="M4315 7399 c-146 -6 -217 -14 -380 -45 -127 -24 -285 -66 -343 -90
-18 -8 -39 -14 -47 -14 -8 0 -29 -6 -47 -14 -18 -8 -73 -31 -123 -51 -218 -89
-439 -215 -630 -359 -44 -33 -82 -62 -85 -65 -3 -4 -43 -38 -90 -78 -93 -78
-217 -203 -295 -298 -28 -33 -53 -62 -56 -65 -3 -3 -32 -41 -65 -85 -147 -196
-266 -404 -359 -630 -20 -49 -43 -105 -51 -123 -8 -18 -14 -39 -14 -47 0 -8
-6 -29 -14 -47 -39 -92 -88 -307 -121 -530 -23 -149 -23 -587 0 -736 33 -223
82 -438 121 -530 8 -18 14 -39 14 -47 0 -8 6 -29 14 -47 8 -18 31 -73 51 -123
93 -226 212 -434 359 -630 33 -44 62 -82 65 -85 4 -3 38 -43 78 -90 78 -93
192 -206 293 -290 36 -30 67 -58 70 -61 20 -22 202 -152 272 -194 9 -5 48 -29
85 -51 84 -51 246 -133 333 -169 95 -38 101 -41 143 -59 21 -9 44 -16 52 -16
8 0 29 -6 47 -14 92 -39 307 -88 530 -121 149 -23 587 -23 736 0 223 33 438
82 530 121 18 8 39 14 47 14 8 0 29 6 47 14 18 8 85 36 148 62 115 49 140 61
280 137 118 64 375 237 410 276 3 3 34 31 70 61 101 84 215 197 293 290 40 47
74 87 78 90 39 35 212 292 276 410 76 140 88 165 137 280 26 63 54 130 62 148
8 18 14 39 14 47 0 8 6 29 14 47 39 92 88 307 121 530 23 149 23 587 0 736
-33 223 -82 438 -121 530 -8 18 -14 39 -14 47 0 8 -6 29 -14 47 -8 18 -36 85
-62 148 -49 115 -61 140 -137 280 -153 282 -397 580 -647 790 -36 30 -67 58
-70 61 -3 3 -41 32 -85 65 -351 264 -758 445 -1190 528 -231 44 -432 57 -730
45z m293 -1253 c45 -23 119 -98 172 -176 13 -19 27 -37 30 -40 4 -3 42 -52 86
-109 43 -57 90 -118 104 -136 14 -18 73 -95 132 -171 260 -337 261 -339 299
-337 19 2 58 10 86 18 29 8 78 22 108 30 30 9 80 22 110 30 61 17 134 37 210
59 28 7 79 21 115 31 36 9 85 24 109 31 61 19 152 18 198 -3 54 -24 121 -90
144 -142 23 -52 25 -147 5 -206 -15 -44 -36 -115 -91 -312 -38 -133 -48 -171
-60 -208 -7 -22 -20 -69 -30 -105 -9 -36 -23 -83 -29 -105 -12 -38 -23 -74
-60 -207 -23 -82 -47 -166 -61 -213 -7 -22 -20 -67 -29 -100 -10 -33 -23 -80
-31 -105 -7 -25 -21 -74 -30 -110 -10 -36 -23 -83 -30 -105 -7 -22 -21 -69
-31 -105 -25 -86 -103 -169 -179 -191 -42 -12 -251 -14 -1370 -14 -1498 0
-1383 -7 -1472 83 -29 29 -53 59 -53 67 0 8 -6 29 -14 47 -8 18 -22 62 -31 98
-9 36 -23 83 -30 105 -7 22 -20 69 -30 105 -9 36 -24 86 -31 113 -19 65 -38
132 -57 197 -33 122 -49 177 -61 220 -7 25 -21 72 -30 105 -10 33 -23 80 -31
105 -7 25 -21 74 -30 110 -10 36 -23 83 -30 105 -7 22 -21 69 -30 105 -10 36
-23 85 -30 110 -8 25 -21 72 -31 105 -9 33 -23 78 -30 100 -20 59 -18 154 5
206 23 52 90 118 144 142 46 21 137 22 198 3 24 -7 73 -22 109 -31 36 -10 85
-23 110 -30 25 -7 74 -20 110 -30 36 -9 85 -23 110 -30 25 -7 71 -20 103 -29
31 -9 81 -23 110 -31 28 -8 67 -16 86 -18 38 -2 39 0 299 337 59 76 118 153
132 171 14 18 61 79 104 136 44 57 82 106 85 109 4 3 19 23 36 45 16 22 31 42
34 45 4 3 23 26 44 53 55 68 114 96 205 97 57 0 83 -5 120 -24z"/>
<path d="M4428 5403 c-30 -38 -89 -113 -131 -168 -64 -84 -160 -209 -295 -384
-102 -132 -154 -188 -196 -215 -43 -26 -58 -30 -125 -30 -43 0 -98 7 -126 16
-49 16 -105 32 -222 64 -32 8 -78 22 -103 29 -75 22 -117 28 -125 16 -6 -10 6
-62 50 -211 8 -25 21 -72 31 -105 9 -33 23 -80 30 -105 20 -68 40 -138 59
-210 9 -36 23 -83 30 -105 7 -22 20 -69 30 -105 9 -36 23 -83 31 -105 8 -23
14 -50 14 -62 0 -11 6 -26 14 -32 10 -8 305 -11 1095 -11 596 0 1086 2 1091 5
5 3 13 27 19 53 11 45 17 66 61 217 11 39 28 95 36 125 9 30 22 78 30 105 8
28 19 66 24 85 5 19 18 67 30 105 11 39 28 95 36 125 9 30 22 78 30 105 28 96
31 113 23 126 -8 13 -18 11 -226 -47 -29 -8 -77 -21 -105 -29 -29 -8 -78 -22
-108 -32 -31 -9 -88 -17 -131 -17 -69 0 -81 3 -128 33 -44 28 -92 81 -176 192
-26 34 -214 278 -300 389 -148 190 -197 250 -204 250 -5 0 -33 -30 -63 -67z"/>
</g>
</svg>
